<?xml version="1.0" encoding="UTF-8" standalone="no"?>
<!-- Created with Inkscape (http://www.inkscape.org/) -->

<svg
   version="1.1"
   id="svg1"
   width="192"
   height="192"
   viewBox="0 0 192 192"
   sodipodi:docname="screaming-crow.svg"
   inkscape:version="1.4.3 (0d15f75, 2025-12-25)"
   xml:space="preserve"
   inkscape:export-filename="screaming-crow-green-black.png"
   inkscape:export-xdpi="256"
   inkscape:export-ydpi="256"
   xmlns:inkscape="http://www.inkscape.org/namespaces/inkscape"
   xmlns:sodipodi="http://sodipodi.sourceforge.net/DTD/sodipodi-0.dtd"
   xmlns="http://www.w3.org/2000/svg"
   xmlns:svg="http://www.w3.org/2000/svg"><defs
     id="defs1"><rect
       x="-77.326027"
       y="82.936986"
       width="37.172603"
       height="73.819178"
       id="rect2" /></defs><sodipodi:namedview
     id="namedview1"
     pagecolor="#ffffff"
     bordercolor="#666666"
     borderopacity="1.0"
     inkscape:showpageshadow="2"
     inkscape:pageopacity="0.0"
     inkscape:pagecheckerboard="0"
     inkscape:deskcolor="#d1d1d1"
     inkscape:zoom="4.0327184"
     inkscape:cx="109.60349"
     inkscape:cy="67.076343"
     inkscape:window-width="3440"
     inkscape:window-height="1334"
     inkscape:window-x="2869"
     inkscape:window-y="-11"
     inkscape:window-maximized="1"
     inkscape:current-layer="g1" /><g
     inkscape:groupmode="layer"
     inkscape:label="Image"
     id="g1"><rect
       style="display:none;fill:#000000;fill-opacity:1;stroke:none;stroke-width:4.62079;stroke-opacity:1"
       id="rect3"
       width="119.16571"
       height="116.01469"
       x="63.481812"
       y="21.460081"
       transform="matrix(1.7313072,0,0,1.7313072,-115.11392,-40.873568)" /><text
       xml:space="preserve"
       id="text2"
       style="font-size:32px;line-height:1.25;font-family:'Bodoni MT';-inkscape-font-specification:'Bodoni MT, Normal';letter-spacing:0px;word-spacing:0px;white-space:pre;shape-inside:url(#rect2);display:inline;fill:#ffffff;fill-opacity:1" /><g
       id="g2"
       transform="matrix(1.7313072,0,0,1.7313072,-115.11392,-40.873568)"
       inkscape:export-filename="screaming-crow-green-black.png"
       inkscape:export-xdpi="256"
       inkscape:export-ydpi="256"><g
         id="g3"><path
           style="fill:#33ff33;fill-opacity:1"
           d="m 69.039235,169.94777 c 0.57291,-0.57291 0.1604,-2.21382 -0.82667,-3.2884 -0.97396,-1.0603 -0.98037,-1.08159 -0.10087,-0.33523 0.51653,0.43833 1.46623,1.33696 2.11046,1.99696 1.31361,1.34578 2.17554,1.50462 3.03159,0.5587 0.4755,-0.52543 0.51581,-0.78297 0.2231,-1.42542 -0.49816,-1.09333 -4.59086,-4.27254 -7.61439,-5.91484 -1.39144,-0.7558 -2.940376,-1.75314 -3.442096,-2.21631 -0.9118,-0.84176 -1.09952,-1.18159 -2.14443,-3.88213 -0.30644,-0.792 -0.78174,-2.016 -1.05622,-2.72 -0.30175,-0.77395 -0.5046,-2.32056 -0.51309,-3.912 l -0.014,-2.632 0.88,0.17247 c 0.484,0.0948 1.72684,0.0381 2.76188,-0.12613 1.603406,-0.2544 1.958536,-0.2187 2.399996,0.24132 2.1517,2.24216 4.19812,4.54101 4.19812,4.71598 0,0.11548 0.20431,0.4373 0.45402,0.71516 0.24971,0.27786 1.2442,1.9812 2.20999,3.7852 l 1.75596,3.28 -1.00998,0.004 c -2.18888,0.008 -3.40999,0.37268 -3.40999,1.01939 0,1.40807 0.57318,1.85709 2.37058,1.85709 3.10512,0 5.8127,1.75404 7.89922,5.1173 1.54419,2.4891 2.0154,2.8827 3.45102,2.8827 1.62701,0 2.21188,-0.66226 1.72471,-1.95293 l -0.35543,-0.94162 1.61676,1.28727 c 1.86171,1.48232 3.35856,1.70186 4.41314,0.64728 1.21526,-1.21526 0.80121,-2.20766 -1.4819,-3.55179 -2.0461,-1.2046 -1.50308,-1.18524 0.89189,0.0318 2.27129,1.15419 2.52095,1.17023 3.41423,0.21938 0.85621,-0.9114 0.88085,-1.55271 0.0872,-2.27091 -0.72322,-0.6545 -7.93118,-2.78237 -12.11312,-3.57593 -2.92387,-0.55482 -2.9713,-0.57865 -3.71626,-1.86727 -0.41503,-0.7179 -1.00753,-2.09727 -1.31668,-3.06527 -0.30914,-0.968 -0.74953,-2.192 -0.97865,-2.72 -0.57122,-1.31638 -1.42675,-4.44069 -1.42675,-5.21034 0,-0.38713 0.67449,-1.1522 1.74157,-1.97544 0.95786,-0.73898 1.78586,-1.4464 1.84,-1.57203 0.0915,-0.21231 2.18124,-1.44945 5.21843,-3.08935 0.704,-0.38011 2.432,-1.31195 3.84,-2.07075 1.408,-0.75879 2.80595,-1.53254 3.10654,-1.71942 0.92016,-0.57209 1.4897,-2.12128 2.19211,-5.96267 0.81688,-4.46736 1.37886,-6.49712 2.58103,-9.32219 1.10485,-2.59698 3.23901,-6.06526 4.02855,-6.54751 2.446365,-1.49422 10.050405,-5.41963 12.891715,-6.65505 1.144,-0.49742 3.736,-1.32747 5.76,-1.84457 4.44173,-1.13478 9.71299,-1.38642 15.36,-0.73328 2.024,0.2341 3.932,0.35214 4.24,0.26231 1.03836,-0.30285 0.65019,-1.58643 -0.88964,-2.94184 -1.5471,-1.36182 -2.1163,-1.5222 -8.15036,-2.29651 -1.496,-0.19197 -5.816,-0.787295 -9.6,-1.322944 -9.05791,-1.282204 -13.26402,-1.864307 -15.13112,-2.094062 -1.76683,-0.217418 -2.468875,-0.952858 -2.468875,-2.586328 0,-1.745959 0.766135,-3.138073 3.477325,-6.31852 0.81538,-0.9565 4.58481,-4.371284 7.51928,-6.811814 5.07874,-4.22388 6.86965,-5.186154 14.43356,-7.755326 3.49827,-1.188226 4.50268,-1.868015 3.79931,-2.571382 -0.6287,-0.628706 -7.47084,-1.635155 -11.46948,-1.687112 -5.11662,-0.06648 -5.16746,-0.04174 -11.30999,5.503968 -1.2925,1.166916 -2.6605,2.215312 -3.04,2.329768 -0.3795,0.114457 -1.77001,0.228777 -3.09001,0.254046 -1.319995,0.02527 -2.941635,0.23922 -3.603645,0.475446 -1.80628,0.644539 -4.4393,2.573624 -7.37092,5.400319 -1.44398,1.392303 -3.20143,2.95949 -3.90543,3.482637 -1.27396,0.946689 -1.29359,0.949977 -4.16,0.696816 -4.52747,-0.399865 -7.84056,-0.1983 -8.86704,0.539464 -0.47688,0.342744 -0.93848,0.62317 -1.02579,0.62317 -0.23819,0 -2.43536,1.522178 -3.70717,2.5683 -2.57259,2.116067 -3.12424,2.528309 -4.644786,3.470971 -1.38982,0.861622 -4.43449,2.419505 -8.13524,4.162603 -0.60501,0.284969 -1.72185,1.130126 -2.48185,1.87813 -0.76001,0.748 -1.65137,1.36 -1.9808,1.36 -0.32942,0 -0.77822,0.216 -0.99732,0.48 -0.2191,0.264 -0.56073,0.48699 -0.75918,0.49553 -0.76071,0.0328 -4.28779,4.95942 -6.86169,9.58447 -0.74384,1.33661 -2.0113,3.04073 -6.17001,8.29568 -0.89476,1.13063 -2.15386,2.44312 -2.79798,2.91664 -0.64413,0.47351 -1.53114,1.25701 -1.97114,1.7411 -1.1899,1.30913 -5.72612,4.78378 -7.25829,5.5597 -0.73606,0.37275 -1.42856,0.82379 -1.53888,1.00231 -0.11033,0.17851 -0.40799,0.32457 -0.66146,0.32457 -0.25347,0 -1.64836,0.576 -3.09975,1.28 -1.45139,0.704 -2.9347,1.28 -3.29625,1.28 -0.36155,0 -0.79417,0.1342 -0.96137,0.29821 -0.34889,0.34225 -5.5595203,1.29924 -7.0824403,1.30077 -0.71109,7.1e-4 -1.07541,0.18055 -1.20725,0.59594 -0.32585,1.02665 0.12043,1.5332 2.20341,2.50099 l 2.02117,0.93908 -1.24847,1.04815 c -0.68666,0.57649 -2.41729,1.47472 -3.84583,1.99607 -3.50545,1.27933 -3.78459,1.45487 -3.78459,2.37997 0,0.57334 0.24668,0.89195 0.88,1.13659 1.78921,0.69113 5.84723,1.27012 8.1707103,1.16578 l 2.39346,-0.10749 -0.91732,0.8569 c -0.50452,0.4713 -1.11434,0.93251 -1.35515,1.02492 -0.7173803,0.27528 -1.8117003,2.71243 -1.8117003,4.03479 0,1.91233 0.46531,2.10933 4.9820803,2.10933 2.15817,0 3.91903,0.072 3.91304,0.16 -0.099,1.45233 1.0932,2.18081 4.01558,2.45371 1.80523,0.16858 2.15175,0.10015 3.36208,-0.6639 l 1.34941,-0.85185 1.10116,1.16757 c 1.09117,1.15698 1.12082,1.16634 3.2689,1.03234 2.80573,-0.17502 5.65363,-1.47823 8.07489,-3.69509 0.62307,-0.57048 1.23105,-1.03848 1.35107,-1.04 0.12001,-0.002 0.90181,-1.29932 1.73734,-2.88399 1.83757,-3.48516 2.32359,-4.03695 3.93884,-4.47189 1.86793,-0.50299 3.0498,0.26013 6.67985,4.3131 0.91903,1.0261 2.68552,3.52795 3.05024,4.32 0.12156,0.264 0.50486,0.948 0.85177,1.52 0.51385,0.84725 0.54299,1.04 0.15725,1.04 -0.32256,0 -0.4735,0.33739 -0.4735,1.0584 0,0.88102 0.22793,1.21954 1.36,2.01991 1.23779,0.8751 1.4448,1.22958 2.30373,3.94485 0.51906,1.64084 1.18932,3.28663 1.48948,3.65732 0.54347,0.67116 0.54864,0.67134 1.24171,0.0441 0.59614,-0.5395 0.66487,-0.83745 0.47917,-2.07722 l -0.21679,-1.44738 1.979696,2.16 c 1.76861,1.92969 2.10747,2.16 3.17802,2.16 0.65907,0 1.29431,-0.096 1.41165,-0.21333 z m -2.40381,-1.17227 c -0.23257,-0.23409 -1.34825,-1.45809 -2.47929,-2.72 -1.131036,-1.26192 -2.319036,-2.2944 -2.639996,-2.2944 -0.71299,0 -0.71998,0.23225 -0.074,2.45448 0.81012,2.78669 0.37991,2.25816 -0.95955,-1.17888 -1.0478,-2.68862 -1.42111,-3.29641 -2.47211,-4.02475 -1.31544,-0.9116 -1.56949,-1.41085 -0.71794,-1.41085 0.39678,0 0.47812,-0.20853 0.34328,-0.88 -0.389,-1.93713 -1.32101,-3.47161 -4.93785,-8.12972 -2.40651,-3.09935 -2.77731,-3.43975 -4.2836,-3.93243 -1.92137,-0.62845 -3.69632,-0.44466 -4.90764,0.50816 -0.44255,0.34811 -1.33003,1.59617 -1.97217,2.77346 -1.9845,3.63834 -2.61634,4.47209 -4.35783,5.75041 -2.31085,1.69623 -3.52896,2.25089 -5.9046,2.68862 -1.87503,0.34549 -2.10356,0.32396 -2.90729,-0.27387 -0.47976,-0.35686 -0.91947,-0.9672 -0.97712,-1.3563 -0.15209,-1.02646 -0.9334,-1.17672 -1.81453,-0.34894 -1.29567,1.21722 -5.25799,1.68991 -6.29545,0.75101 -0.70875,-0.64141 -0.76089,-1.80623 -0.1052,-2.3504 0.264,-0.2191 0.48,-0.59673 0.48,-0.83918 0,-0.66021 -0.98245,-0.53129 -1.7993,0.2361 -0.64052,0.60173 -1.09902,0.67693 -4.1277,0.67693 -2.01941,0 -3.54835,-0.1412 -3.7538103,-0.34666 -0.57857,-0.57857 0.3317803,-2.93764 1.5719803,-4.07362 0.60793,-0.55684 1.63712,-1.26857 2.28708,-1.5816 0.64996,-0.31304 1.56397,-0.76329 2.03112,-1.00056 0.46716,-0.23728 1.15116,-0.43141 1.52,-0.43141 0.4573,0 0.67063,-0.20359 0.67063,-0.64 0,-0.77444 -0.51442,-0.80438 -2.94458,-0.17141 -2.91725,0.75985 -6.8893903,0.88583 -9.0793703,0.28796 -1.04283,-0.28469 -2.40005,-0.62682 -3.01605,-0.76029 -0.616,-0.13346 -0.83477,-0.25922 -0.48616,-0.27946 0.34861,-0.0202 1.89566,-0.48817 3.43789,-1.03984 2.47616,-0.88574 2.9727,-1.20043 4.2461703,-2.69104 1.56664,-1.83378 1.76378,-2.38592 0.85187,-2.38592 -0.32462,0 -1.00862,-0.36372 -1.5200003,-0.80827 -0.51137,-0.44455 -1.28861,-0.9009 -1.72719,-1.01412 -0.55804,-0.14406 0.30649,-0.3897 2.8800003,-0.81832 2.02258,-0.33685 3.72542,-0.7445 3.78409,-0.90588 0.0587,-0.16137 0.44106,-0.29341 0.84976,-0.29341 0.4087,0 1.2967,-0.2684 1.97333,-0.59644 4.52321,-2.19291 8.66567,-4.34258 9.09544,-4.71995 0.27786,-0.24399 0.59078,-0.44361 0.69538,-0.44361 0.1046,0 0.61227,-0.396 1.12815,-0.88 0.51588,-0.484 1.35496,-1.22471 1.86462,-1.64601 2.16095,-1.78634 5.14405,-4.62415 5.88665,-5.59994 0.44,-0.57817 1.88,-2.21161 3.2,-3.62987 1.693,-1.81901 3.34267,-4.15582 5.6,-7.93252 3.11643,-5.21406 4.70674,-7.11006 6.4,-7.63019 0.352,-0.10813 1.23592,-0.74235 1.96426,-1.40939 1.31278,-1.2023 2.13505,-1.687479 4.91574,-2.900561 5.848426,-2.551389 7.247456,-3.345344 9.269886,-5.260706 2.78445,-2.637005 4.10416,-3.750817 4.44421,-3.750817 0.15379,0 0.67238,-0.308941 1.15241,-0.686536 0.8235,-0.647765 1.06538,-0.671486 4.28316,-0.420021 1.8757,0.146584 4.54737,0.275525 5.93705,0.286537 l 2.52669,0.02002 3.17419,-3.36 c 2.00982,-2.127476 2.94541,-2.949159 2.55054,-2.24 -0.87771,1.57627 -1.12242,3.613839 -0.58619,4.880888 0.68409,1.616459 1.6115,2.250155 3.52536,2.408868 1.65612,0.137338 1.75352,0.0986 3.24512,-1.290663 1.41889,-1.321544 1.5493,-1.571519 1.68717,-3.234056 0.17961,-2.165859 -0.27575,-3.413489 -1.5125,-4.144054 -1.13194,-0.668651 -3.3778,-0.696464 -4.65707,-0.05767 l -0.96,0.479366 0.83715,-0.721339 c 1.85448,-1.597938 2.35984,-1.946772 3.64202,-2.513939 0.94775,-0.419236 2.07431,-0.586911 3.868955,-0.575852 3.2118,0.01979 3.99927,-0.294282 6.36566,-2.538899 2.47993,-2.352297 5.2295,-4.645323 6.24621,-5.209068 1.6869,-0.935344 11.85757,-0.08055 13.03565,1.095581 0.31397,0.313444 -0.3467,0.649544 -3.2,1.627935 -5.96632,2.045841 -9.92862,4.440284 -14.79565,8.941092 -0.352,0.325514 -1.69757,1.550336 -2.99017,2.721827 -2.36457,2.14303 -4.70298,4.938984 -5.629915,6.731494 -0.27495,0.531689 -0.49991,1.749905 -0.49991,2.707147 0,2.404238 0.61971,3.103684 3.064185,3.458466 5.66701,0.822488 20.57477,2.90605 26.21581,3.66401 3.98424,0.53535 6.33652,1.3249 6.68977,2.24546 0.11291,0.29425 0.13858,0.60172 0.057,0.68327 -0.0815,0.0815 -2.38092,-0.0206 -5.10971,-0.22694 -6.05512,-0.45789 -9.77012,-0.16226 -16.09896,1.28112 -1.24131,0.2831 -6.61948,2.78077 -10.33814,4.80112 -2.16788,1.17781 -4.750435,2.55897 -5.716595,3.05726 -0.67138,0.34625 -1.5797,1.34798 -2.41322,2.66141 -2.44399,3.85109 -3.89086,8.07175 -5.16477,15.06617 -0.33597,1.84464 -0.77835,3.27853 -1.12505,3.64662 -0.31426,0.33364 -3.17069,2.06164 -6.34764,3.84 -3.17694,1.77836 -6.10396,3.50813 -6.50449,3.84394 -2.15304,1.80514 -3.32914,2.93309 -3.67689,3.52637 -0.53244,0.90835 -0.5081,2.78252 0.0464,3.5742 0.43648,0.62316 1.80625,4.20879 2.47191,6.47072 0.17187,0.58401 0.69901,1.70362 1.17142,2.48801 0.68116,1.13101 1.12383,1.49514 2.13892,1.75943 2.61401,0.68058 8.40408,2.29209 11.00466,3.06285 2.44649,0.72509 2.63982,0.84052 2.1792,1.30115 -0.45915,0.45914 -0.57556,0.45955 -1.27021,0.004 -0.86043,-0.56378 -6.77818,-2.47768 -7.66093,-2.47768 -0.35938,0 -0.57272,0.23839 -0.57272,0.64 0,0.352 0.18685,0.64 0.41522,0.64 0.42655,0 6.22943,2.99665 6.68492,3.45214 0.32373,0.32373 -0.602,1.66786 -1.14869,1.66786 -0.22674,0 -0.67289,-0.288 -0.99145,-0.64 -0.31855,-0.352 -0.73687,-0.64069 -0.92959,-0.64153 -0.19273,-8.4e-4 -0.86128,-0.46884 -1.48569,-1.04 -1.68735,-1.54347 -3.40062,-2.39057 -3.87515,-1.91603 -0.29579,0.29578 -0.0447,0.72384 1.1143,1.89936 1.72287,1.7475 1.8617,2.25706 0.59443,2.18167 -1.12193,-0.0668 -1.6583,-0.38448 -1.6583,-0.98236 0,-0.25361 -0.108,-0.46137 -0.24,-0.46168 -0.132,-3.2e-4 -0.64212,-0.63709 -1.1336,-1.41505 -0.84056,-1.33053 -2.06238,-2.52874 -4.3933,-4.30843 -0.89489,-0.68326 -1.21813,-0.74375 -3.0569,-0.57204 -1.13091,0.1056 -2.0562,0.0702 -2.0562,-0.0786 0,-0.38767 1.20109,-0.65585 2.96,-0.66091 1.19562,-0.003 1.52,-0.11672 1.52,-0.53083 0,-0.61098 -2.71581,-6.11103 -3.3867,-6.85874 -0.24932,-0.27786 -0.4533,-0.67386 -0.4533,-0.88 0,-0.20614 -0.144,-0.3748 -0.32,-0.3748 -0.176,0 -0.32,-0.19085 -0.32,-0.4241 0,-0.23326 -0.936,-1.38341 -2.08,-2.5559 -1.144,-1.17249 -2.08,-2.26356 -2.08,-2.4246 0,-0.59772 -1.7916,-0.92014 -3.538528,-0.6368 -0.95781,0.15535 -2.14337,0.19748 -2.63458,0.0936 -1.53392,-0.32432 -1.82853,0.24561 -1.81284,3.50696 0.008,1.68014 0.20021,3.39656 0.45232,4.04082 0.24105,0.616 0.67316,1.768 0.96025,2.56 1.40567,3.87786 2.3131,4.91173 6.052028,6.89536 2.91037,1.54405 5.37749,3.36141 6.42168,4.73041 0.45082,0.59105 0.81967,1.16905 0.81967,1.28444 0,0.56078 -0.80243,0.0793 -1.86341,-1.11803 -1.34697,-1.52009 -4.66997,-3.79218 -5.5462,-3.79218 -1.00757,0 -0.66276,0.74686 1.32961,2.88 1.056,1.13061 1.92,2.14513 1.92,2.25449 0,0.6931 -1.04222,0.81883 -1.65714,0.19991 z m 26.10514,-80.342404 c -1.23556,-1.235567 -1.37307,-2.214532 -0.55361,-3.941418 1.55389,-3.274569 6.14267,-2.913949 6.17544,0.485309 0.0131,1.362234 -0.68406,2.69111 -1.81347,3.456589 -2.01857,1.368119 -2.43981,1.368066 -3.80836,-4.8e-4 z m 3.48568,-0.197004 c 1.77443,-1.395762 1.77702,-4.14459 0.005,-4.818481 -1.91895,-0.729585 -3.62103,0.525066 -3.61332,2.663485 0.006,1.5412 0.18407,1.911004 1.17406,2.432095 0.98645,0.519229 1.49609,0.461227 2.43472,-0.277099 z m -2.35004,-0.971365 c -0.71199,-0.711987 -0.6211,-1.615896 0.26381,-2.623631 0.64237,-0.731532 1.43739,-0.710249 2.1318,0.05707 0.63676,0.703607 0.48842,1.492017 -0.47537,2.526521 -0.80429,0.863305 -1.091,0.869283 -1.92024,0.04004 z"
           id="path1"
           inkscape:export-filename="screaming-drow-outline.png"
           inkscape:export-xdpi="300"
           inkscape:export-ydpi="300" /><path
           style="fill:#33ff33;fill-opacity:1;stroke:none;stroke-opacity:1"
           d="m 123.26625,97.956574 c -3.00123,-0.345736 -3.4757,-1.035369 -5.31534,-7.725879 -1.5677,-5.701385 -1.5824,-5.826305 -0.9473,-8.032499 0.88579,-3.076968 2.59651,-4.662023 6.22987,-5.772217 2.20732,-0.674456 3.09494,-0.771158 4.78195,-0.520954 2.42352,0.359434 3.39077,1.37048 4.21991,4.410934 0.70511,2.585795 0.0743,3.545913 -2.82493,4.299666 -2.29107,0.595633 -3.04743,0.254887 -3.52676,-1.588824 -0.55552,-2.136788 -2.06555,-2.567692 -2.40211,-0.685469 -0.24354,1.362013 1.42109,7.374254 2.4022,8.676141 1.21632,1.61401 2.01481,1.107369 1.95269,-1.23899 l -0.0528,-1.997415 2.6947,-0.700569 2.6947,-0.70057 0.71511,1.179826 c 0.67343,1.111068 0.71217,0.898542 0.66477,-3.646651 -0.0606,-5.812558 0.37215,-9.103497 1.34351,-10.216752 0.5026,-0.576025 1.4336,-1.00997 3.06214,-1.427287 3.53338,-0.905437 5.63803,-0.927202 7.23425,-0.0748 1.40214,0.748764 1.42397,0.794632 2.75564,5.793564 0.73827,2.771355 1.72909,5.843293 2.20181,6.826532 2.35586,4.899952 2.33605,4.819202 1.30723,5.327402 -0.51859,0.25617 -2.25695,0.757876 -3.863,1.1149 l -2.92012,0.64914 -1.07493,-3.651446 -1.07492,-3.651446 -1.22969,0.319693 c -0.67632,0.175832 -1.20468,0.436606 -1.17411,0.579498 0.4735,2.214361 0.88209,6.929029 0.65882,7.601728 -0.26737,0.805596 -0.49763,0.91223 -2.70079,1.250779 -2.72257,0.418367 -3.53225,0.253087 -3.84517,-0.784761 l -0.21752,-0.721422 -0.23856,0.843052 c -0.37297,1.318033 -1.90435,2.196049 -5.90489,3.385582 -3.03515,0.902475 -4.03944,1.059996 -5.60631,0.879525 z m 7.27384,-2.306345 c 3.10272,-1.347691 3.49431,-2.092076 2.86776,-5.451321 l -0.52102,-2.793445 -1.17938,0.0589 c -0.64865,0.0324 -1.5877,0.346945 -2.08679,0.699027 -0.73763,0.520367 -0.84159,0.893298 -0.55567,1.993083 0.64216,2.470021 -1.43719,3.87164 -3.39347,2.287441 -0.96258,-0.779488 -1.27194,-1.518182 -2.31704,-5.532569 -1.40024,-5.37799 -1.24699,-6.369221 1.04619,-6.773048 1.29306,-0.227706 1.36347,-0.171707 2.25189,1.791301 0.50439,1.114496 1.16078,2.039204 1.45865,2.054905 0.29785,0.01571 1.1502,-0.243711 1.89409,-0.576462 1.29709,-0.580208 1.33978,-0.676068 1.04132,-2.338204 -0.77566,-4.319561 -2.44317,-5.136623 -7.43283,-3.642022 -2.98182,0.893171 -3.0284,0.924207 -4.39243,2.926871 -1.80753,2.653803 -1.80976,4.751558 -0.0114,10.73032 1.68126,5.589434 2.39527,6.216834 6.61459,5.812189 2.36061,-0.226391 2.37425,-0.229992 4.71552,-1.246947 z m 10.29305,-3.491402 c -0.007,-0.450606 -0.22137,-2.246142 -0.47567,-3.990074 l -0.46236,-3.170784 2.14957,-0.669373 2.14958,-0.669373 0.83357,3.206329 c 1.06041,4.078788 1.43642,4.369153 4.44698,3.434172 l 2.23994,-0.695653 -0.41814,-1.171119 c -0.22998,-0.644118 -1.36211,-4.23264 -2.51581,-7.974507 -1.62439,-5.268445 -2.27427,-6.906634 -2.8805,-7.260997 -1.26572,-0.739861 -3.50313,-0.734101 -6.39006,0.01645 l -2.69959,0.70184 -0.50068,1.625278 c -0.9939,3.226415 -0.68628,17.410034 0.39164,18.057596 0.29207,0.175463 1.34414,0.107633 2.33794,-0.150736 1.54202,-0.400894 1.80494,-0.589859 1.79359,-1.289046 z m -1.03129,-11.79885 c -0.61366,-2.39217 -0.51732,-3.360433 0.38555,-3.866408 1.3601,-0.762213 2.11963,-0.09344 2.78041,2.448182 l 0.61242,2.355666 -1.65827,0.431118 -1.65828,0.431119 z m 2.36356,-0.980145 c -0.41978,-1.456893 -1.31998,-2.53143 -1.44646,-1.726528 -0.0495,0.314524 -0.008,1.167684 0.0917,1.895913 0.1491,1.087497 0.31476,1.289414 0.92742,1.130133 0.57113,-0.148481 0.67127,-0.452979 0.42736,-1.299517 z m 12.74827,10.38545 c -0.602,-0.481059 -6.86637,-17.886898 -6.7221,-18.67765 0.0788,-0.43201 0.85298,-0.724745 3.5534,-1.343661 l 3.45263,-0.791316 1.15187,3.90569 1.15187,3.905691 0.50199,-2.690168 0.50199,-2.690165 2.72221,-0.815031 2.72222,-0.815031 2.06911,2.677539 2.06911,2.677538 -1.25624,-4.137234 c -0.95218,-3.135825 -1.14815,-4.261657 -0.80954,-4.651307 0.25984,-0.299028 1.73108,-0.802758 3.51701,-1.204175 3.06853,-0.689702 3.07053,-0.689529 3.47993,0.300402 0.22532,0.544769 0.48193,2.123553 0.57024,3.508404 0.0883,1.384847 0.66216,5.126771 1.27515,8.315391 0.61301,3.188618 0.98884,6.176211 0.83522,6.639091 -0.2498,0.752644 -0.64687,0.937158 -3.75643,1.745582 l -3.4771,0.903979 -0.7128,-1.0031 c -0.39205,-0.551702 -1.09779,-1.643484 -1.56831,-2.42618 -0.47053,-0.782695 -1.4854,-2.222313 -2.25528,-3.199154 l -1.39978,-1.776075 -0.40595,2.327648 c -0.22328,1.280205 -0.38552,3.320382 -0.36054,4.533732 0.0305,1.483943 -0.19493,2.443336 -0.68877,2.930856 -0.77895,0.768967 -5.67416,2.237827 -6.16111,1.848704 z m 5.04816,-2.21775 c 0.33136,-0.339671 0.62139,-1.690332 0.64453,-3.001472 0.0669,-3.789986 0.86753,-7.590935 1.61279,-7.656557 0.80008,-0.07045 2.97396,2.419631 5.23695,5.998678 l 1.72244,2.724148 2.31962,-0.608637 c 1.27578,-0.334777 2.55179,-0.818961 2.83553,-1.076 0.39342,-0.356369 0.22226,-2.112321 -0.72078,-7.394571 -0.68019,-3.809976 -1.28338,-7.820116 -1.34042,-8.911426 -0.057,-1.09131 -0.21869,-2.077716 -0.35923,-2.192016 -0.30841,-0.250815 -3.62188,0.575873 -4.48587,1.119193 -0.53434,0.336025 -0.46427,0.819518 0.52896,3.649651 1.37646,3.922095 1.81715,7.214501 0.99423,7.428442 -0.36039,0.09369 -1.45528,-1.071921 -2.96769,-3.159362 l -2.3966,-3.307837 -1.98844,0.313328 c -1.73527,0.273438 -2.00543,0.413504 -2.12197,1.100172 -0.0735,0.432766 -0.35732,2.120277 -0.6308,3.750027 -0.74202,4.421791 -1.27573,4.125307 -2.91458,-1.619093 l -1.38396,-4.850936 -2.2373,0.470101 c -3.0221,0.635 -3.28063,1.014836 -2.28048,3.350614 0.44661,1.043002 1.75203,4.613872 2.90094,7.935268 2.76859,8.003687 2.48819,7.580596 4.65125,7.018242 0.97814,-0.254296 2.04955,-0.740271 2.38088,-1.07994 z"
           id="path2"
           sodipodi:nodetypes="scssssssssscccssssssssscccssssscsssssscsssscssssssscsssscccsscsssscsssscssccccsssssssscccccccccsssssssscssscssssssssccsssssssscsssscssssss" /><path
           style="fill:#33ff33;fill-opacity:1;stroke:none;stroke-opacity:1"
           d="m 100.6516,74.742817 c -2.901839,0.840387 -3.605867,0.387553 -7.88707,-5.073079 -3.648299,-4.653319 -3.710111,-4.762865 -3.976491,-7.043147 -0.371502,-3.180306 0.594182,-5.303138 3.516706,-7.730624 1.775478,-1.474731 2.556853,-1.906789 4.209573,-2.327646 2.374263,-0.604597 3.656972,-0.04564 5.596192,2.438556 1.6492,2.112737 1.43822,3.242 -0.94484,5.057137 -1.883169,1.434376 -2.712449,1.412236 -3.866749,-0.103226 -1.337777,-1.756361 -2.897052,-1.570541 -2.480444,0.295597 0.301468,1.350374 4.159244,6.252981 5.567093,7.074849 1.74536,1.018912 2.28617,0.24316 1.32254,-1.897092 l -0.82024,-1.821992 2.21494,-1.687077 2.21495,-1.687079 1.11534,0.812029 c 1.05033,0.764707 1.00397,0.553712 -0.79542,-3.620399 -2.30112,-5.338012 -3.17315,-8.540686 -2.7072,-9.942744 0.24109,-0.725456 0.93221,-1.485338 2.27316,-2.499322 2.9094,-2.200002 4.84229,-3.033042 6.64387,-2.863371 1.58254,0.149044 1.6204,0.18292 4.77965,4.279479 1.75146,2.271086 3.85198,4.721873 4.6678,5.446201 4.06572,3.609646 4.01626,3.542816 3.26359,4.408975 -0.37939,0.436603 -1.78903,1.570846 -3.13252,2.52053 l -2.44274,1.726713 -2.40194,-2.952828 -2.40194,-2.952832 -1.01076,0.769873 c -0.55591,0.423427 -0.94253,0.868051 -0.85914,0.988045 1.2921,1.859595 3.49011,6.050511 3.54401,6.757242 0.0646,0.846347 -0.10664,1.033647 -2.00803,2.196935 -2.34966,1.437544 -3.16034,1.597847 -3.84986,0.761423 l -0.4793,-0.581408 0.1056,0.869768 c 0.1651,1.359802 -0.90827,2.761198 -4.13883,5.403696 -2.45099,2.004814 -3.31648,2.538036 -4.83145,2.976808 z m 5.81841,-4.937005 c 2.34133,-2.441579 2.415,-3.279449 0.5395,-6.13595 l -1.55961,-2.375379 -1.06509,0.509888 c -0.58579,0.280439 -1.33045,0.933298 -1.65481,1.450837 -0.47938,0.764904 -0.43122,1.149047 0.25733,2.05303 1.54641,2.030265 0.16985,4.126289 -2.24652,3.420699 -1.188959,-0.347172 -1.759649,-0.909036 -4.274271,-4.208158 -3.368919,-4.41971 -3.610446,-5.393203 -1.651236,-6.651474 1.104744,-0.709504 1.191319,-0.685048 2.769038,0.782432 0.89574,0.833164 1.85837,1.432557 2.13919,1.331982 0.280799,-0.10056 0.966789,-0.669084 1.524409,-1.263351 0.9723,-1.036203 0.97465,-1.141113 0.0573,-2.558957 -2.383979,-3.684687 -4.237672,-3.794223 -8.262743,-0.488267 -2.405382,1.975636 -2.436359,2.022256 -2.920951,4.396369 -0.642154,3.146024 0.166089,5.081825 4.134289,9.901896 3.709806,4.506193 4.610736,4.809097 8.346275,2.80606 2.08995,-1.120653 2.10114,-1.129244 3.86787,-2.971631 z m 8.14554,-7.196318 c -0.18051,-0.412929 -1.07181,-1.986301 -1.98,-3.49665 l -1.65125,-2.74609 1.72417,-1.447735 1.72418,-1.447739 2.00739,2.635489 c 2.55362,3.35261 3.0126,3.475197 5.42835,1.449894 l 1.79737,-1.506882 -0.83805,-0.918709 c -0.46093,-0.50529 -2.89133,-3.377983 -5.40086,-6.383788 -3.53336,-4.232084 -4.76558,-5.492097 -5.46164,-5.584787 -1.45327,-0.193527 -3.5148,0.676031 -5.88775,2.483463 l -2.21896,1.690139 0.16598,1.692531 c 0.3295,3.359913 6.09196,16.323855 7.33635,16.504788 0.33718,0.04903 1.28139,-0.419922 2.09826,-1.042113 1.26748,-0.965416 1.43701,-1.241273 1.15646,-1.881808 z m -5.50879,-10.484733 c -1.49006,-1.969465 -1.77521,-2.89979 -1.13786,-3.715246 0.96012,-1.228421 1.91903,-0.904938 3.51027,1.184178 l 1.47482,1.936273 -1.36304,1.038197 -1.36305,1.038203 z m 1.80151,-1.817045 c -0.94995,-1.181669 -2.19535,-1.825086 -2.0011,-1.0338 0.0758,0.309233 0.44366,1.080145 0.81692,1.713342 0.55759,0.945499 0.78839,1.067754 1.29197,0.684184 0.46945,-0.357568 0.4442,-0.677113 -0.10777,-1.363733 z m 15.77041,4.655112 c -0.74109,-0.211187 -13.24262,-13.846343 -13.41499,-14.631449 -0.0942,-0.428918 0.50683,-0.997975 2.75859,-2.611946 l 2.879,-2.063547 2.57112,3.157619 2.57112,3.15762 -0.57611,-2.675276 -0.5761,-2.675273 2.19611,-1.803282 2.19611,-1.803286 2.94277,1.670488 2.94277,1.670487 -2.75683,-3.330877 c -2.08955,-2.524641 -2.70519,-3.487395 -2.54337,-3.977598 0.12417,-0.376187 1.28665,-1.409117 2.77891,-2.46923 2.56395,-1.821453 2.56586,-1.822066 3.32587,-1.067107 0.41826,0.415453 1.26479,1.77258 1.88117,3.015835 0.61638,1.243255 2.59109,4.473087 4.38817,7.177444 1.7971,2.704348 3.29778,5.314889 3.33488,5.801182 0.0603,0.790718 -0.23467,1.114287 -2.79061,3.061097 l -2.85805,2.176918 -1.04494,-0.649912 c -0.57473,-0.357445 -1.64742,-1.091882 -2.38375,-1.632082 -0.73634,-0.540195 -2.22852,-1.476064 -3.31598,-2.079706 l -1.97718,-1.097533 0.52466,2.303796 c 0.28856,1.267089 0.92697,3.211587 1.41869,4.321115 0.60134,1.356987 0.76399,2.328994 0.49679,2.969431 -0.42146,1.010169 -4.36936,4.255899 -4.96882,4.085072 z m 3.7997,-3.995575 c 0.17444,-0.441302 -0.0798,-1.799163 -0.56487,-3.017478 -1.40225,-3.52167 -2.13196,-7.33687 -1.46989,-7.685271 0.71077,-0.374029 3.67777,1.083081 7.1476,3.510216 l 2.64101,1.847388 1.90449,-1.457398 c 1.04744,-0.80159 2.03739,-1.741079 2.19982,-2.087768 0.22523,-0.480677 -0.61092,-2.034227 -3.52114,-6.542231 -2.09908,-3.251529 -4.20445,-6.717431 -4.6786,-7.702006 -0.47412,-0.984592 -1.00428,-1.831982 -1.17806,-1.883125 -0.38136,-0.112218 -3.11833,1.930202 -3.70539,2.765086 -0.36307,0.516345 -0.11168,0.935246 1.89765,3.162064 2.78462,3.085999 4.46287,5.952641 3.78645,6.467847 -0.29622,0.225626 -1.75638,-0.426593 -3.95772,-1.76782 l -3.48831,-2.125365 -1.71308,1.057084 c -1.49496,0.922499 -1.69005,1.156048 -1.53231,1.834437 0.0994,0.427568 0.48942,2.093735 0.86669,3.70263 1.02357,4.365217 0.41677,4.297901 -3.31378,-0.367612 l -3.15031,-3.939851 -1.88207,1.297817 c -2.54226,1.753062 -2.63401,2.20328 -0.80924,3.97144 0.81483,0.789538 3.39825,3.579012 5.74094,6.19883 5.6453,6.313062 5.22323,6.031119 7.00119,4.676886 0.80399,-0.612386 1.60453,-1.474496 1.77894,-1.915785 z"
           id="path2-4"
           sodipodi:nodetypes="scssssssssscccssssssssscccssssscsssssscsssscssssssscsssscccsscsssscsssscssccccsssssssscccccccccsssssssscssscssssssssccsssssssscsssscssssss" /><path
           style="fill:#33ff33;fill-opacity:1;stroke:none;stroke-opacity:1"
           d="m 114.84723,129.2847 c -2.71772,-1.31945 -2.93722,-2.12725 -2.45911,-9.04959 0.40739,-5.89892 0.43486,-6.02167 1.76428,-7.89339 1.85414,-2.61046 3.99301,-3.54008 7.78905,-3.38532 2.30615,0.094 3.17575,0.29651 4.68492,1.09089 2.16801,1.14121 2.74617,2.41537 2.52242,5.55891 -0.19035,2.67344 -1.10334,3.3707 -4.08866,3.12254 -2.35909,-0.19611 -2.96007,-0.76797 -2.80225,-2.66642 0.18291,-2.20023 -1.09944,-3.10657 -2.03992,-1.44178 -0.68055,1.20467 -1.09935,7.42904 -0.60436,8.98225 0.61366,1.92559 1.53483,1.71173 2.25269,-0.52298 l 0.61118,-1.90234 2.77471,0.23067 2.7747,0.23066 0.28434,1.35 c 0.26779,1.27133 0.37469,1.08361 1.83411,-3.22118 1.86637,-5.50511 3.3638,-8.4674 4.64884,-9.19648 0.66491,-0.37724 1.68706,-0.47864 3.36195,-0.33351 3.63392,0.31489 5.62719,0.99084 6.85138,2.32345 1.07535,1.17059 1.08077,1.22111 0.6831,6.37906 -0.22045,2.85952 -0.30206,6.08625 -0.18136,7.17053 0.60157,5.40349 0.6096,5.32073 -0.52943,5.45984 -0.57415,0.0701 -2.38059,-0.0317 -4.01429,-0.22631 l -2.97041,-0.35379 0.19401,-3.80143 0.19403,-3.80143 -1.2662,-0.10527 c -0.6964,-0.0579 -1.28129,0.0133 -1.29973,0.15829 -0.28597,2.24629 -1.46064,6.83053 -1.89395,7.39144 -0.5189,0.67171 -0.77147,0.69614 -2.96254,0.28652 -2.70761,-0.50619 -3.41698,-0.93011 -3.3688,-2.01303 l 0.0335,-0.75276 -0.50411,0.71661 c -0.78813,1.12033 -2.52379,1.4421 -6.69258,1.24071 -3.16278,-0.15281 -4.16261,-0.33652 -5.58148,-1.02534 z m 7.62723,0.23074 c 3.37389,-0.24496 3.98977,-0.81783 4.5102,-4.19513 l 0.43277,-2.80847 -1.13242,-0.33471 c -0.62282,-0.18409 -1.61305,-0.19803 -2.20054,-0.0309 -0.86828,0.24695 -1.08979,0.56447 -1.18394,1.6969 -0.21142,2.54336 -2.63745,3.17788 -3.95924,1.03555 -0.65039,-1.05412 -0.69786,-1.85357 -0.35559,-5.98762 0.4584,-5.53835 0.93105,-6.42302 3.22866,-6.0452 1.29555,0.21304 1.34346,0.28918 1.5322,2.43559 0.1072,1.2186 0.42059,2.30843 0.69644,2.42183 0.27587,0.11338 1.16604,0.15065 1.97814,0.0828 1.416,-0.11829 1.48802,-0.1946 1.75642,-1.86185 0.69752,-4.33287 -0.60564,-5.65573 -5.80877,-5.89658 -3.10939,-0.14392 -3.16361,-0.13006 -5.11353,1.30837 -2.58391,1.90611 -3.28022,3.88492 -3.56175,10.12195 -0.26319,5.83088 0.20296,6.65922 4.31846,7.67367 2.30251,0.56757 2.31658,0.56867 4.86247,0.38383 z m 10.8685,0.11162 c 0.14252,-0.42754 0.53443,-2.19285 0.87158,-3.92267 l 0.613,-3.14514 2.24997,0.0797 2.24998,0.0797 -0.27447,3.30152 c -0.34914,4.1999 -0.0904,4.59833 3.05994,4.71232 l 2.34394,0.0848 -0.007,-1.24351 c -0.004,-0.68393 0.11535,-4.44491 0.26496,-8.35775 0.21062,-5.50915 0.13949,-7.27009 -0.31531,-7.80511 -0.94957,-1.11704 -3.06282,-1.85204 -6.03544,-2.0992 l -2.77975,-0.23107 -1.01032,1.368 c -2.00562,2.71571 -6.40913,16.20196 -5.60624,17.16974 0.21755,0.26224 1.23279,0.54639 2.25609,0.63147 1.5878,0.13198 1.89844,0.0407 2.11912,-0.62287 z m 2.93143,-11.47533 c 0.21256,-2.46046 0.62391,-3.34229 1.64334,-3.52097 1.5357,-0.26919 2.03111,0.61332 1.81357,3.23037 l -0.20165,2.4256 -1.70751,-0.14195 -1.70751,-0.14195 z m 2.55474,-0.14274 c 0.086,-1.51373 -0.40791,-2.82562 -0.79358,-2.10793 -0.15081,0.28042 -0.39399,1.09924 -0.5409,1.81943 -0.21918,1.07556 -0.12967,1.32092 0.50118,1.37337 0.58808,0.0489 0.78335,-0.20528 0.83332,-1.08487 z m 8.5931,14.01907 c -0.40887,-0.65317 -0.56015,-19.15136 -0.16232,-19.84981 0.21733,-0.38158 1.04476,-0.40163 3.79784,-0.092 l 3.51996,0.39585 -0.20554,4.06681 -0.20556,4.06683 1.36398,-2.37247 1.36396,-2.37247 2.83855,0.13175 2.83855,0.13176 1.06645,3.21142 1.06644,3.2114 0.18369,-4.31986 c 0.1392,-3.27423 0.32685,-4.40148 0.77533,-4.65712 0.34415,-0.19619 1.8992,-0.18464 3.71734,0.0276 3.12388,0.36464 3.12571,0.36547 3.18444,1.43509 0.0323,0.58866 -0.24797,2.1634 -0.62293,3.49945 -0.37495,1.33603 -1.07175,5.05703 -1.54852,8.26885 -0.47674,3.21181 -1.11077,6.15544 -1.40892,6.5414 -0.4848,0.62757 -0.92056,0.67029 -4.12244,0.40411 l -3.58034,-0.29764 -0.34067,-1.18247 c -0.18737,-0.65035 -0.49206,-1.91417 -0.67705,-2.80848 -0.18499,-0.89429 -0.66627,-2.58866 -1.06951,-3.76523 l -0.73315,-2.13924 -1.15337,2.06216 c -0.63436,1.13418 -1.46261,3.00571 -1.84057,4.15896 -0.4623,1.41042 -0.99253,2.24117 -1.61988,2.53779 -0.98953,0.46785 -6.09501,0.23397 -6.42576,-0.29437 z m 5.49765,-0.42219 c 0.4251,-0.21088 1.14576,-1.38946 1.6015,-2.61906 1.31735,-3.55431 3.33072,-6.87614 4.05571,-6.69143 0.77829,0.19833 2.00566,3.26747 2.95672,7.39375 l 0.72389,3.14066 2.39033,0.1933 c 1.31469,0.10627 2.67903,0.0717 3.03184,-0.077 0.48919,-0.2061 0.90878,-1.91976 1.76693,-7.21645 0.61898,-3.8204 1.37686,-7.80421 1.68418,-8.8529 0.30736,-1.04869 0.4812,-2.03302 0.38641,-2.18738 -0.20803,-0.33875 -3.60838,-0.65517 -4.60349,-0.42839 -0.61543,0.14027 -0.70931,0.6197 -0.70862,3.61906 9.5e-4,4.15662 -0.67275,7.40935 -1.5201,7.3389 -0.37109,-0.0308 -1.01854,-1.49311 -1.75494,-3.96344 l -1.1669,-3.91456 -1.98009,-0.36237 c -1.72799,-0.31622 -2.02927,-0.27345 -2.36649,0.33597 -0.21257,0.38405 -1.03885,1.88255 -1.83626,3.32996 -2.16352,3.92709 -2.56904,3.4707 -2.21455,-2.49238 l 0.29935,-5.03561 -2.26681,-0.29678 c -3.06197,-0.40088 -3.43162,-0.128 -3.26081,2.40714 0.0763,1.13203 0.12644,4.93371 0.11146,8.44818 -0.0361,8.46892 -0.16066,7.97687 2.06662,8.16204 1.00718,0.0837 2.17904,-0.0203 2.60411,-0.23119 z"
           id="path2-1"
           sodipodi:nodetypes="scssssssssscccssssssssscccssssscsssssscsssscssssssscsssscccsscsssscsssscssccccsssssssscccccccccsssssssscssscssssssssccsssssssscsssscssssss" /></g></g></g></svg>
